<svg version="1.2" xmlns="http://www.w3.org/2000/svg" viewBox="0 0 1328 1000" width="1328" height="1000">
	<title>18907-ai</title>
	<defs>
		<linearGradient id="g1" x1="352" y1="324.8" x2="952.9" y2="324.8" gradientUnits="userSpaceOnUse">
			<stop offset="0" stop-color="#36353b"/>
			<stop offset="1" stop-color="#2b2a30"/>
		</linearGradient>
		<linearGradient id="g2" x1="387.5" y1="342.5" x2="889.1" y2="342.5" gradientUnits="userSpaceOnUse">
			<stop offset="0" stop-color="#e6e6e6"/>
			<stop offset="1" stop-color="#deefff"/>
		</linearGradient>
		<linearGradient id="g3" x1="972.3" y1="650.2" x2="972.3" y2="983.4" gradientUnits="userSpaceOnUse">
			<stop offset="0" stop-color="#36353b"/>
			<stop offset="1" stop-color="#2a292e"/>
		</linearGradient>
		<linearGradient id="g4" x1="3.9" y1="888.8" x2="662.9" y2="888.8" gradientUnits="userSpaceOnUse">
			<stop offset="0" stop-color="#212125"/>
			<stop offset="1" stop-color="#1b1a1e"/>
		</linearGradient>
	</defs>
	<style>
		.s0 { fill: url(#g1) } 
		.s1 { fill: url(#g2) } 
		.s2 { fill: #d96268 } 
		.s3 { fill: url(#g3) } 
		.s4 { fill: #ffffff } 
		.s5 { fill: url(#g4) } 
		.s6 { fill: #e3e3e3 } 
		.s7 { fill: #e0e0e0 } 
		.s8 { fill: #1487e3 } 
		.s9 { fill: #78c2ff } 
		.s10 { fill: #ff8761 } 
		.s11 { fill: #a8d05e } 
		.s12 { fill: #f4bf61 } 
		.s13 { fill: #d59093 } 
	</style>
	<g id="Слой 1">
		<g id="&lt;Group&gt;">
			<g id="&lt;Group&gt;">
				<g id="&lt;Group&gt;">
					<path id="&lt;Path&gt;" class="s0" d="m368.3 347.8c0-10.5 8.5-19 19-19h503c10.4 0 18.9 8.5 18.9 19v381.7h-540.9z"/>
				</g>
				<g id="&lt;Group&gt;">
					<path id="&lt;Path&gt;" class="s1" d="m387.5 346.5h501.6v308.1h-501.6z"/>
				</g>
				<g id="&lt;Group&gt;">
					<path id="&lt;Compound Path&gt;" fill-rule="evenodd" class="s2" d="m334.8 349.9h-127.6l0.2-1.1c2-10.6 11.3-18.2 22-18.2q2.4 0 4.6 0.5c6.7-12.6 19.6-20.5 33.9-20.5 12.2 0 23.7 5.9 30.9 15.8 2.7-0.8 5.4-1.3 8.2-1.3 13.9 0 25.5 10 27.6 23.7zm-125.3-1.9h123c-2.3-12-13.1-20.9-25.5-20.9-2.8 0-5.6 0.4-8.2 1.3l-0.7 0.2-0.4-0.6c-6.8-9.7-17.9-15.4-29.7-15.4-13.9 0-26.4 7.6-32.6 20l-0.3 0.7-0.7-0.2q-2.4-0.6-4.9-0.6c-9.5 0-17.7 6.5-20 15.5z"/>
				</g>
				<g id="&lt;Group&gt;">
					<path id="&lt;Compound Path&gt;" fill-rule="evenodd" class="s2" d="m803.4 192.8l-0.4-0.2c-45.3-23.1-39.2-67.9-39.2-68.3l0.2-0.9h0.8c28.8 0 37.8-9.2 37.9-9.3l0.7-0.8 0.7 0.8c0.1 0.1 9.1 9.3 37.9 9.3h0.9l0.1 0.9c0 0.4 6.1 45.2-39.2 68.3zm-37.7-67.5c-0.6 6.1-2.5 44.5 37.7 65.4 40.3-20.9 38.4-59.3 37.8-65.4-25-0.1-35.2-7.1-37.8-9.3-2.6 2.2-12.7 9.2-37.7 9.3z"/>
				</g>
				<g id="&lt;Group&gt;">
					<g id="&lt;Group&gt;">
					</g>
					<g id="&lt;Group&gt;">
					</g>
					<g id="&lt;Group&gt;">
					</g>
					<g id="&lt;Group&gt;">
					</g>
					<g id="&lt;Group&gt;">
					</g>
					<g id="&lt;Group&gt;">
					</g>
					<g id="&lt;Group&gt;">
					</g>
				</g>
				<g id="&lt;Group&gt;">
				</g>
				<g id="&lt;Group&gt;">
					<path id="&lt;Path&gt;" class="s2" d="m360.2 444.3h-80.6v-103.2h1.9v101.3h78.7z"/>
				</g>
				<g id="&lt;Group&gt;">
					<path id="&lt;Path&gt;" class="s2" d="m701.7 376.3h-1.9v-106.3h102.6v-89.5h2v91.4h-102.7z"/>
				</g>
				<g id="&lt;Group&gt;">
					<path id="&lt;Path&gt;" class="s2" d="m1033.3 494.8h-106.8v-1.9h104.9v-62h1.9z"/>
				</g>
				<g id="&lt;Group&gt;">
				</g>
				<g id="&lt;Group&gt;">
					<g id="&lt;Group&gt;">
						<g id="&lt;Group&gt;">
						</g>
					</g>
				</g>
				<g id="&lt;Group&gt;">
					<g id="&lt;Group&gt;">
						<g id="&lt;Group&gt;">
						</g>
					</g>
				</g>
				<g id="&lt;Group&gt;">
					<g id="&lt;Group&gt;">
						<g id="&lt;Group&gt;">
						</g>
					</g>
				</g>
				<g id="&lt;Group&gt;">
					<g id="&lt;Group&gt;">
						<g id="&lt;Group&gt;">
						</g>
					</g>
				</g>
				<g id="&lt;Group&gt;">
					<g id="&lt;Group&gt;">
						<g id="&lt;Group&gt;">
						</g>
					</g>
				</g>
				<g id="&lt;Group&gt;">
					<g id="&lt;Group&gt;">
						<g id="&lt;Group&gt;">
						</g>
					</g>
				</g>
				<g id="&lt;Group&gt;">
					<g id="&lt;Group&gt;">
					</g>
				</g>
				<g id="&lt;Group&gt;">
					<g id="&lt;Group&gt;">
						<g id="&lt;Group&gt;">
						</g>
					</g>
				</g>
				<g id="&lt;Group&gt;">
					<g id="&lt;Group&gt;">
						<g id="&lt;Group&gt;">
						</g>
					</g>
				</g>
				<g id="&lt;Group&gt;">
					<g id="&lt;Group&gt;">
						<g id="&lt;Group&gt;">
						</g>
					</g>
				</g>
				<g id="&lt;Group&gt;">
					<g id="&lt;Group&gt;">
						<g id="&lt;Group&gt;">
						</g>
					</g>
				</g>
				<g id="&lt;Group&gt;">
					<g id="&lt;Group&gt;">
						<g id="&lt;Group&gt;">
						</g>
					</g>
				</g>
				<g id="&lt;Group&gt;">
					<g id="&lt;Group&gt;">
					</g>
				</g>
				<g id="&lt;Group&gt;">
					<g id="&lt;Group&gt;">
						<g id="&lt;Group&gt;">
						</g>
					</g>
				</g>
				<g id="&lt;Group&gt;">
				</g>
				<g id="&lt;Group&gt;">
					<g id="&lt;Group&gt;">
						<g id="&lt;Group&gt;">
							<path id="&lt;Compound Path&gt;" fill-rule="evenodd" class="s2" d="m1015 364.1h-51.1v-51.1h51.1zm-49.4-1.7h47.7v-47.6h-47.7z"/>
						</g>
						<g id="&lt;Group&gt;">
							<path id="&lt;Compound Path&gt;" fill-rule="evenodd" class="s2" d="m1142.1 331.8h-116.9v-12.5h116.9zm-115.2-1.7h113.5v-9.1h-113.5z"/>
						</g>
						<g id="&lt;Group&gt;">
							<path id="&lt;Compound Path&gt;" fill-rule="evenodd" class="s2" d="m1142.1 389.8h-178.2v-12.5h178.2zm-176.5-1.7h174.8v-9.1h-174.8z"/>
						</g>
						<g id="&lt;Group&gt;">
							<path id="&lt;Compound Path&gt;" fill-rule="evenodd" class="s2" d="m1077.4 413.8h-113.5v-12.5h113.5zm-111.8-1.7h110.1v-9.1h-110.1z"/>
						</g>
						<g id="&lt;Group&gt;">
							<path id="&lt;Compound Path&gt;" fill-rule="evenodd" class="s2" d="m1104.4 355.6h-79.2v-12.5h79.2zm-77.5-1.7h75.8v-9.1h-75.8z"/>
						</g>
					</g>
					<g id="&lt;Group&gt;">
						<path id="&lt;Compound Path&gt;" fill-rule="evenodd" class="s2" d="m1162.4 440.9h-218.7v-155h218.7zm-217-1.7h215.3v-151.7h-215.3z"/>
					</g>
				</g>
				<g id="&lt;Group&gt;">
					<path id="&lt;Path&gt;" class="s2" d="m866.5 216.4h-16.3v-1.9h14.4v-14.4h1.9z"/>
				</g>
				<g id="&lt;Group&gt;">
					<path id="&lt;Path&gt;" class="s2" d="m756.5 216.4h-16.4v-16.3h1.9v14.4h14.5z"/>
				</g>
				<g id="&lt;Group&gt;">
					<path id="&lt;Path&gt;" class="s2" d="m742 106.4h-1.9v-16.4h16.4v1.9h-14.5z"/>
				</g>
				<g id="&lt;Group&gt;">
					<path id="&lt;Path&gt;" class="s2" d="m866.5 106.4h-1.9v-14.5h-14.4v-1.9h16.3z"/>
				</g>
				<g id="&lt;Group&gt;">
					<path id="&lt;Path&gt;" class="s2" d="m866.5 175.6h-1.9v-44.8h1.9z"/>
				</g>
				<g id="&lt;Group&gt;">
					<path id="&lt;Path&gt;" class="s2" d="m742 175.6h-1.9v-44.8h1.9z"/>
				</g>
				<g id="&lt;Group&gt;">
					<path id="&lt;Compound Path&gt;" fill-rule="evenodd" class="s2" d="m280.5 342.1c-3.8 0-7-3.1-7-7 0-3.9 3.2-7 7-7 3.9 0 7 3.1 7 7 0 3.9-3.1 7-7 7zm0-12.1c-2.8 0-5.1 2.3-5.1 5.1 0 2.8 2.3 5.1 5.1 5.1 2.8 0 5.1-2.3 5.1-5.1 0-2.8-2.3-5.1-5.1-5.1z"/>
				</g>
				<g id="&lt;Group&gt;">
					<path id="&lt;Compound Path&gt;" fill-rule="evenodd" class="s2" d="m803.4 181.4c-3.9 0-7-3.1-7-7 0-3.8 3.1-7 7-7 3.9 0 7 3.2 7 7 0 3.9-3.1 7-7 7zm0-12.1c-2.8 0-5.1 2.3-5.1 5.1 0 2.9 2.3 5.1 5.1 5.1 2.8 0 5.1-2.2 5.1-5.1 0-2.8-2.3-5.1-5.1-5.1z"/>
				</g>
				<g id="&lt;Group&gt;">
					<path id="&lt;Compound Path&gt;" fill-rule="evenodd" class="s2" d="m1032.4 432.2c-3.9 0-7-3.2-7-7 0-3.9 3.1-7 7-7 3.8 0 7 3.1 7 7 0 3.8-3.2 7-7 7zm0-12.1c-2.8 0-5.1 2.3-5.1 5.1 0 2.8 2.3 5.1 5.1 5.1 2.8 0 5.1-2.3 5.1-5.1 0-2.8-2.3-5.1-5.1-5.1z"/>
				</g>
				<g id="&lt;Group&gt;">
					<path id="&lt;Compound Path&gt;" fill-rule="evenodd" class="s2" d="m327 147.6h-48.1v-48.1h48.1zm-46.2-1.9h44.3v-44.3h-44.3z"/>
				</g>
				<g id="&lt;Group&gt;">
					<path id="&lt;Path&gt;" class="s2" d="m303.9 135h-1.9v-22.4h1.9z"/>
				</g>
				<g id="&lt;Group&gt;">
					<path id="&lt;Path&gt;" class="s2" d="m314.1 124.8h-22.4v-1.9h22.4z"/>
				</g>
				<g id="&lt;Group&gt;">
				</g>
				<g id="&lt;Group&gt;">
				</g>
				<g id="&lt;Group&gt;">
				</g>
				<g id="&lt;Group&gt;">
				</g>
				<g id="&lt;Group&gt;">
					<path id="&lt;Compound Path&gt;" fill-rule="evenodd" class="s2" d="m447 254.9l-0.7-1.9q-1-0.1-1.9-0.4l-1.5 1.3-4.2-3 0.8-1.8q-0.6-0.8-1-1.6l-2-0.1-0.9-5.1 1.9-0.7q0.1-1 0.4-1.9l-1.4-1.5 3.1-4.2 1.8 0.8q0.8-0.6 1.6-1l0.1-2 5.1-0.9 0.7 1.9q1 0.1 1.9 0.4l1.5-1.4 4.2 3.1-0.8 1.8q0.6 0.8 1 1.6l2 0.1 0.9 5.1-1.9 0.7q-0.1 1-0.4 1.9l1.3 1.5-3 4.2-1.8-0.8q-0.8 0.6-1.6 1l-0.1 2zm-2.9-3.9l0.4 0.1q1.1 0.5 2.4 0.6h0.4l0.6 1.6 2.8-0.5 0.1-1.7 0.4-0.2q1.1-0.5 2.1-1.3l0.3-0.2 1.6 0.7 1.6-2.4-1.2-1.2 0.2-0.4q0.4-1.2 0.6-2.4v-0.5l1.6-0.6-0.5-2.8h-1.7l-0.2-0.4q-0.5-1.2-1.3-2.1l-0.3-0.4 0.7-1.5-2.3-1.7-1.2 1.2-0.5-0.2q-1.1-0.4-2.3-0.5h-0.5l-0.6-1.6-2.8 0.4-0.1 1.7-0.4 0.2q-1.1 0.5-2 1.3l-0.4 0.3-1.5-0.7-1.7 2.3 1.2 1.3-0.2 0.4q-0.4 1.1-0.5 2.4l-0.1 0.4-1.6 0.6 0.5 2.8 1.7 0.1 0.2 0.4q0.5 1.1 1.3 2.1l0.3 0.3-0.7 1.6 2.3 1.6zm3.6-2.3c-1.2 0-2.3-0.4-3.3-1.1-2.5-1.8-3.1-5.3-1.3-7.9 1.8-2.5 5.3-3.1 7.8-1.3 1.3 0.9 2.1 2.2 2.3 3.7 0.3 1.5-0.1 2.9-0.9 4.2-0.9 1.2-2.2 2-3.7 2.3q-0.5 0.1-0.9 0.1zm0-9.9c-1.3 0-2.6 0.6-3.5 1.8-0.6 0.9-0.9 2-0.7 3.1 0.2 1.1 0.8 2.1 1.7 2.7 0.9 0.7 2.1 1 3.2 0.8 1.1-0.2 2.1-0.8 2.7-1.8 0.7-0.9 0.9-2 0.7-3.1-0.2-1.1-0.8-2.1-1.7-2.7-0.7-0.6-1.6-0.8-2.4-0.8z"/>
				</g>
				<g id="&lt;Group&gt;">
					<path id="&lt;Compound Path&gt;" fill-rule="evenodd" class="s2" d="m407.3 260.9l-1.6-4.2q-2.6-0.3-5-1.2l-3.3 3.1-8.8-6.3 1.8-4.1q-1.6-2-2.7-4.3l-4.5-0.2-1.8-10.7 4.2-1.6q0.2-2.6 1.1-5l-3-3.2 6.2-8.9 4.1 1.8q2-1.6 4.4-2.7l0.1-4.5 10.7-1.8 1.6 4.2q2.6 0.3 5 1.2l3.3-3.1 8.8 6.3-1.8 4.1q1.6 2 2.7 4.3l4.5 0.2 1.8 10.7-4.2 1.6q-0.3 2.5-1.1 5l3 3.2-6.3 8.9-4-1.8q-2.1 1.6-4.4 2.7l-0.1 4.5zm-7.1-7.6l0.6 0.2q2.7 1.1 5.6 1.3l0.6 0.1 1.5 3.8 7.6-1.3 0.1-4.1 0.6-0.2q2.7-1.2 4.9-3.1l0.5-0.4 3.7 1.7 4.5-6.3-2.8-3 0.2-0.5q1-2.8 1.3-5.7v-0.6l3.9-1.5-1.3-7.6-4.1-0.1-0.3-0.5q-1.2-2.7-3-5l-0.4-0.4 1.6-3.8-6.3-4.4-2.9 2.8-0.6-0.3q-2.7-1-5.6-1.2l-0.6-0.1-1.5-3.8-7.6 1.3-0.2 4.1-0.5 0.2q-2.7 1.2-4.9 3.1l-0.5 0.4-3.7-1.7-4.5 6.3 2.8 3-0.2 0.5q-1 2.8-1.3 5.7l-0.1 0.6-3.8 1.4 1.3 7.7 4.1 0.1 0.2 0.5q1.2 2.7 3.1 5l0.4 0.4-1.7 3.7 6.3 4.5zm8-7c-2.4 0-4.9-0.7-7.1-2.3-5.5-3.9-6.8-11.6-2.9-17.2 4-5.5 11.7-6.8 17.2-2.9 5.6 4 6.9 11.7 2.9 17.2-2.4 3.4-6.2 5.2-10.1 5.2zm0.1-22.7c-3.3 0-6.5 1.5-8.5 4.3-1.7 2.3-2.3 5.1-1.8 7.8 0.4 2.8 1.9 5.2 4.2 6.8 4.7 3.3 11.2 2.2 14.6-2.5 1.6-2.2 2.2-5 1.7-7.7-0.4-2.8-1.9-5.2-4.2-6.8-1.8-1.3-3.9-1.9-6-1.9z"/>
				</g>
				<g id="&lt;Group&gt;">
					<g id="&lt;Group&gt;">
						<g id="&lt;Group&gt;">
							<path id="&lt;Compound Path&gt;" fill-rule="evenodd" class="s2" d="m157.7 270.9c-19.6 0-35.6-16-35.6-35.6h1.9c0 18.6 15.1 33.7 33.7 33.7 18.5 0 33.7-15.1 33.7-33.7 0-18.6-15.2-33.7-33.7-33.7v-1.9c19.6 0 35.6 16 35.6 35.6 0 19.6-16 35.6-35.6 35.6zm0-5c-16.9 0-30.7-13.7-30.7-30.6 0-16.9 13.8-30.6 30.7-30.6 16.9 0 30.6 13.7 30.6 30.6h-1.9c0-15.8-12.9-28.7-28.7-28.7-15.9 0-28.8 12.9-28.8 28.7 0 15.8 12.9 28.7 28.8 28.7z"/>
						</g>
					</g>
				</g>
				<g id="&lt;Group&gt;">
					<path id="&lt;Path&gt;" class="s2" d="m153.3 247.1l-12.8-12.8 1.3-1.4 11.5 11.5 20.2-20.2 1.4 1.3z"/>
				</g>
				<path id="&lt;Path&gt;" class="s3" d="m968.3 892.8h-327.7-331.2l59.1-221.2h270.4 270.3z"/>
				<path id="&lt;Path&gt;" class="s4" d="m389 710.4h33.2c1.4 0 2.4 1.1 2.2 2.3l-3.2 14.4c-0.2 0.9-1.1 1.5-2.2 1.5h-33.8c-1.4 0-2.5-1.1-2.2-2.3l3.8-14.4c0.3-0.9 1.1-1.5 2.2-1.5z"/>
				<path id="&lt;Path&gt;" class="s4" d="m437.4 710.4h25.1l-3.3 18.2h-25.6z"/>
				<path id="&lt;Path&gt;" class="s4" d="m475.1 710.4h25.1l-2.6 18.2-25.6 0.1z"/>
				<path id="&lt;Path&gt;" class="s4" d="m512.8 710.4h25.1l-1.9 18.2h-25.6z"/>
				<path id="&lt;Path&gt;" class="s4" d="m550.4 710.4h25.2l-1.2 18.2h-25.6z"/>
				<path id="&lt;Path&gt;" class="s4" d="m588.1 710.4h25.1l-0.5 18.2-25.5 0.1z"/>
				<path id="&lt;Path&gt;" class="s4" d="m894.3 728.6h-38.4l-4-18.2h37.6z"/>
				<path id="&lt;Path&gt;" class="s4" d="m843.1 728.6h-25.6l-3.3-18.2h25.1z"/>
				<path id="&lt;Path&gt;" class="s4" d="m804.7 728.7l-25.5-0.1-2.7-18.2h25.1z"/>
				<path id="&lt;Path&gt;" class="s4" d="m766.4 728.6h-25.6l-1.9-18.2h25.1z"/>
				<path id="&lt;Path&gt;" class="s4" d="m728 728.6h-25.6l-1.2-18.2h25.1z"/>
				<path id="&lt;Path&gt;" class="s4" d="m689.6 728.7l-25.6-0.1-0.5-18.2h25.1z"/>
				<path id="&lt;Path&gt;" class="s4" d="m625.8 710.4h25.1l0.4 18.2h-25.5z"/>
				<path id="&lt;Path&gt;" class="s4" d="m377.9 742.2h52.5l-3 18.8h-53.4z"/>
				<path id="&lt;Path&gt;" class="s4" d="m902.6 761h-66l-3.7-18.8h64.8z"/>
				<path id="&lt;Path&gt;" class="s4" d="m823.3 761h-26.4l-3-18.8h26z"/>
				<path id="&lt;Path&gt;" class="s4" d="m783.7 761h-26.5l-2.2-18.8h26z"/>
				<path id="&lt;Path&gt;" class="s4" d="m744 761h-26.4l-1.5-18.8h26z"/>
				<path id="&lt;Path&gt;" class="s4" d="m704.4 761h-26.5l-0.7-18.8h25.9z"/>
				<path id="&lt;Path&gt;" class="s4" d="m370.1 775.8h53.6l-3.9 18.6h-54.6z"/>
				<path id="&lt;Path&gt;" class="s4" d="m437.2 775.8h26.8l-3.2 18.6h-27.3z"/>
				<path id="&lt;Path&gt;" class="s4" d="m477.4 775.8h26.8 174.3l0.8 18.6h-204.8z"/>
				<path id="&lt;Path&gt;" class="s4" d="m692 775.8h26.8l1.5 18.6h-27.3z"/>
				<path id="&lt;Path&gt;" class="s4" d="m732.2 775.8h26.8l2.2 18.6h-27.3z"/>
				<path id="&lt;Path&gt;" class="s4" d="m772.4 775.8h26.9l2.9 18.6h-27.3z"/>
				<path id="&lt;Path&gt;" class="s4" d="m812.7 775.8h26.8l3.7 18.6h-27.3z"/>
				<path id="&lt;Path&gt;" class="s4" d="m852.9 775.8h53.7l4.9 18.6h-54.7z"/>
				<path id="&lt;Path&gt;" class="s4" d="m664.8 761h-26.3v-18.8h25.8z"/>
				<path id="&lt;Path&gt;" class="s4" d="m625.1 761h-26.4l0.7-18.8h26z"/>
				<path id="&lt;Path&gt;" class="s4" d="m585.5 761h-26.5l1.5-18.8h25.9z"/>
				<path id="&lt;Path&gt;" class="s4" d="m545.8 761h-26.4l2.2-18.8h25.9z"/>
				<path id="&lt;Path&gt;" class="s4" d="m506.1 761h-26.4l3-18.8h25.9z"/>
				<path id="&lt;Path&gt;" class="s4" d="m466.5 761h-26.5l3.7-18.8h26z"/>
				<path id="&lt;Path&gt;" class="s4" d="m390.2 699l4.3-16.3h12.2l-4 16.3z"/>
				<path id="&lt;Path&gt;" class="s4" d="m418.9 682.7h24.3l-3.4 16.3h-24.8z"/>
				<path id="&lt;Path&gt;" class="s4" d="m455.4 682.7h24.4l-2.7 16.3h-24.9z"/>
				<path id="&lt;Path&gt;" class="s4" d="m492 682.7h24.4l-2.1 16.3h-24.8z"/>
				<path id="&lt;Path&gt;" class="s4" d="m528.6 682.7h24.4l-1.5 16.3h-24.8z"/>
				<path id="&lt;Path&gt;" class="s4" d="m565.2 682.7h24.4l-0.9 16.3h-24.8z"/>
				<path id="&lt;Path&gt;" class="s4" d="m601.8 682.7h24.3l-0.2 16.3h-24.8z"/>
				<path id="&lt;Path&gt;" class="s4" d="m638.3 682.7h24.4l0.4 16.3h-24.8z"/>
				<path id="&lt;Path&gt;" class="s4" d="m674.9 682.7h24.4l1.1 16.3h-24.9z"/>
				<path id="&lt;Path&gt;" class="s4" d="m711.5 682.7h24.4l1.7 16.3h-24.8z"/>
				<path id="&lt;Path&gt;" class="s4" d="m748.1 682.7h24.3l2.4 16.3h-24.8z"/>
				<path id="&lt;Path&gt;" class="s4" d="m784.6 682.7h24.4l3 16.3h-24.8z"/>
				<path id="&lt;Path&gt;" class="s4" d="m821.2 682.7h24.4l3.6 16.3h-24.8z"/>
				<path id="&lt;Path&gt;" class="s4" d="m857.8 682.7h24.4l4.2 16.3h-24.8z"/>
				<path id="&lt;Path&gt;" class="s5" d="m951.1 910h-624.5c-9.5 0-17.2-7.7-17.2-17.2h658.9c0 9.5-7.7 17.2-17.2 17.2z"/>
				<path id="&lt;Path&gt;" class="s6" d="m724 873.2c0.8 4.9-2.9 9.4-7.9 9.4h-77.2-77.3c-4.9 0-8.7-4.5-7.9-9.4l8.6-51.9c0.6-3.9 4-6.7 7.9-6.7h68.7 68.6c4 0 7.3 2.8 8 6.7z"/>
				<g id="&lt;Group&gt;">
					<g id="&lt;Group&gt;">
						<path id="&lt;Path&gt;" class="s7" d="m477.2 380.3h-55.9v-5.7h55.9z"/>
					</g>
					<g id="&lt;Group&gt;">
						<path id="&lt;Path&gt;" class="s7" d="m533.2 423.4h-40.3v-5.7h40.3z"/>
					</g>
					<g id="&lt;Group&gt;">
						<path id="&lt;Path&gt;" class="s8" d="m566.3 423.4h-26.8v-5.7h26.8z"/>
					</g>
					<g id="&lt;Group&gt;">
						<path id="&lt;Path&gt;" class="s8" d="m448.7 531.8h-26.7v-5.7h26.7z"/>
					</g>
					<g id="&lt;Group&gt;">
						<path id="&lt;Path&gt;" class="s7" d="m636.2 423.4h-64.6v-5.7h64.6z"/>
					</g>
					<g id="&lt;Group&gt;">
						<path id="&lt;Path&gt;" class="s7" d="m463.5 510.1h-41.5v-5.7h41.5z"/>
					</g>
					<g id="&lt;Group&gt;">
						<path id="&lt;Path&gt;" class="s7" d="m505.2 553.3h-25.3v-5.7h25.3z"/>
					</g>
					<g id="&lt;Group&gt;">
						<path id="&lt;Path&gt;" class="s8" d="m472.2 553.3h-50.2v-5.7h50.2z"/>
					</g>
					<g id="&lt;Group&gt;">
						<path id="&lt;Path&gt;" class="s7" d="m449.7 574.9h-27.7v-5.8h27.7z"/>
					</g>
					<g id="&lt;Group&gt;">
						<path id="&lt;Path&gt;" class="s9" d="m527.8 380.3h-39.7v-5.7h39.7z"/>
					</g>
					<g id="&lt;Group&gt;">
						<path id="&lt;Path&gt;" class="s8" d="m527.8 445h-39.7v-5.8h39.7z"/>
					</g>
					<g id="&lt;Group&gt;">
						<path id="&lt;Path&gt;" class="s7" d="m485.2 466.5h-16.9v-5.7h16.9z"/>
					</g>
					<g id="&lt;Group&gt;">
						<path id="&lt;Path&gt;" class="s9" d="m489.4 488.4h-38.1v-5.7h38.1z"/>
					</g>
					<g id="&lt;Group&gt;">
						<path id="&lt;Path&gt;" class="s8" d="m547.7 488.4h-52.6v-5.7h52.6z"/>
					</g>
					<g id="&lt;Group&gt;">
						<path id="&lt;Path&gt;" class="s8" d="m461.6 466.7h-39.6v-5.7h39.6z"/>
					</g>
					<g id="&lt;Group&gt;">
						<path id="&lt;Path&gt;" class="s8" d="m445.5 488.4h-23.5v-5.7h23.5z"/>
					</g>
					<g id="&lt;Group&gt;">
						<path id="&lt;Path&gt;" class="s10" d="m515.4 466.7h-22.2v-5.7h22.2z"/>
					</g>
					<g id="&lt;Group&gt;">
						<path id="&lt;Path&gt;" class="s10" d="m444.8 596.4h-22.2v-5.7h22.2z"/>
					</g>
					<g id="&lt;Group&gt;">
						<path id="&lt;Path&gt;" class="s9" d="m461.5 423.4h-39.7v-5.7h39.7z"/>
					</g>
					<g id="&lt;Group&gt;">
						<path id="&lt;Path&gt;" class="s9" d="m496.6 531.8h-39.7v-5.7h39.7z"/>
					</g>
					<g id="&lt;Group&gt;">
						<path id="&lt;Path&gt;" class="s9" d="m497.1 574.9h-39.7v-5.8h39.7z"/>
					</g>
					<g id="&lt;Group&gt;">
						<path id="&lt;Path&gt;" class="s9" d="m567.5 574.9h-39.6v-5.8h39.6z"/>
					</g>
					<g id="&lt;Group&gt;">
						<path id="&lt;Path&gt;" class="s9" d="m478.4 445h-56.6v-5.8h56.6z"/>
					</g>
					<g id="&lt;Group&gt;">
						<path id="&lt;Path&gt;" class="s9" d="m726.5 380.3h-39.7v-5.7h39.7z"/>
					</g>
					<g id="&lt;Group&gt;">
						<path id="&lt;Path&gt;" class="s9" d="m585.2 596.4h-39.7v-5.7h39.7z"/>
					</g>
					<g id="&lt;Group&gt;">
						<path id="&lt;Path&gt;" class="s9" d="m765.4 380.3h-26.6v-5.7h26.6z"/>
					</g>
					<g id="&lt;Group&gt;">
						<path id="&lt;Path&gt;" class="s9" d="m855.3 401.9h-26.6v-5.7h26.6z"/>
					</g>
					<g id="&lt;Group&gt;">
						<path id="&lt;Path&gt;" class="s8" d="m589 380.3h-50.6v-5.7h50.6z"/>
					</g>
					<g id="&lt;Group&gt;">
						<path id="&lt;Path&gt;" class="s8" d="m785.9 401.9h-50.5v-5.7h50.5z"/>
					</g>
					<g id="&lt;Group&gt;">
						<path id="&lt;Path&gt;" class="s8" d="m723.9 423.4h-50.5v-5.7h50.5z"/>
					</g>
					<g id="&lt;Group&gt;">
						<path id="&lt;Path&gt;" class="s8" d="m658.1 445h-50.5v-5.8h50.5z"/>
					</g>
					<g id="&lt;Group&gt;">
						<path id="&lt;Path&gt;" class="s9" d="m766.2 423.4h-35.9v-5.7h35.9z"/>
					</g>
					<g id="&lt;Group&gt;">
						<path id="&lt;Path&gt;" class="s10" d="m676.9 380.3h-50.5v-5.7h50.5z"/>
					</g>
					<g id="&lt;Group&gt;">
						<path id="&lt;Path&gt;" class="s10" d="m598.3 445h-29.6v-5.8h29.6z"/>
					</g>
					<g id="&lt;Group&gt;">
						<path id="&lt;Path&gt;" class="s10" d="m575.1 532.1h-29.6v-5.7h29.6z"/>
					</g>
					<g id="&lt;Group&gt;">
						<path id="&lt;Path&gt;" class="s7" d="m616.8 380.3h-18.5v-5.7h18.5z"/>
					</g>
					<g id="&lt;Group&gt;">
						<path id="&lt;Path&gt;" class="s7" d="m556.9 445h-18.5v-5.8h18.5z"/>
					</g>
					<g id="&lt;Group&gt;">
						<path id="&lt;Path&gt;" class="s7" d="m816.6 401.9h-18.5v-5.7h18.5z"/>
					</g>
					<g id="&lt;Group&gt;">
						<path id="&lt;Path&gt;" class="s8" d="m450.3 401.9h-29v-5.7h29z"/>
					</g>
					<g id="&lt;Group&gt;">
						<path id="&lt;Path&gt;" class="s8" d="m521.4 510.2h-22.8v-5.7h22.8z"/>
					</g>
					<g id="&lt;Group&gt;">
						<path id="&lt;Path&gt;" class="s8" d="m466.7 401.9h-9.3v-5.7h9.3z"/>
					</g>
					<g id="&lt;Group&gt;">
						<path id="&lt;Path&gt;" class="s7" d="m726.5 401.9h-77.2v-5.7h77.2z"/>
					</g>
					<g id="&lt;Group&gt;">
						<path id="&lt;Path&gt;" class="s7" d="m652.4 574.9h-77.3v-5.8h77.3z"/>
					</g>
					<g id="&lt;Group&gt;">
						<path id="&lt;Path&gt;" class="s10" d="m483.1 401.9h-9.5v-5.7h9.5z"/>
					</g>
					<g id="&lt;Group&gt;">
						<path id="&lt;Path&gt;" class="s8" d="m642.1 401.9h-25.3v-5.7h25.3z"/>
					</g>
					<g id="&lt;Group&gt;">
						<path id="&lt;Path&gt;" class="s10" d="m667.4 423.4h-25.3v-5.7h25.3z"/>
					</g>
					<g id="&lt;Group&gt;">
						<path id="&lt;Path&gt;" class="s10" d="m537.4 596.4h-25.2v-5.7h25.2z"/>
					</g>
					<g id="&lt;Group&gt;">
						<path id="&lt;Path&gt;" class="s8" d="m610.2 401.9h-53.8v-5.7h53.8z"/>
					</g>
					<g id="&lt;Group&gt;">
						<path id="&lt;Path&gt;" class="s8" d="m537.7 532.1h-31.4v-5.7h31.4z"/>
					</g>
					<g id="&lt;Group&gt;">
						<path id="&lt;Path&gt;" class="s8" d="m520 574.9h-15.7v-5.8h15.7z"/>
					</g>
					<g id="&lt;Group&gt;">
						<path id="&lt;Path&gt;" class="s9" d="m548.8 401.9h-18.6v-5.7h18.6z"/>
					</g>
					<g id="&lt;Group&gt;">
						<path id="&lt;Path&gt;" class="s10" d="m486.5 423.4h-18.5v-5.7h18.5z"/>
					</g>
					<g id="&lt;Group&gt;">
						<path id="&lt;Path&gt;" class="s10" d="m490.2 510.2h-18.5v-5.7h18.5z"/>
					</g>
					<g id="&lt;Group&gt;">
						<path id="&lt;Path&gt;" class="s8" d="m523.2 401.9h-32.2v-5.7h32.2z"/>
					</g>
				</g>
				<g id="&lt;Group&gt;" style="opacity: .8">
					<path id="&lt;Path&gt;" class="s4" d="m962 625.5h-233.8c-4.4 0-8-3.6-8-8v-162.1c0-4.4 3.6-8 8-8h233.8c4.4 0 8 3.6 8 8v162.1c0 4.4-3.6 8-8 8z"/>
				</g>
				<g id="&lt;Group&gt;">
					<g id="&lt;Group&gt;">
						<path id="&lt;Path&gt;" class="s11" d="m900.7 541.2c0-1.7 1.4-3.1 3.1-3.1h40.2c1.7 0 3.1 1.4 3.1 3.1v6.2c0 1.7-1.4 3-3.1 3h-40.2c-1.7 0-3.1-1.3-3.1-3z"/>
					</g>
				</g>
				<g id="&lt;Group&gt;">
					<g id="&lt;Group&gt;">
						<path id="&lt;Path&gt;" class="s12" d="m944 573.6h-40.2c-1.7 0-3.1-1.4-3.1-3.1v-6.2c0-1.7 1.4-3.1 3.1-3.1h40.2c1.7 0 3.1 1.4 3.1 3.1v6.2c0 1.7-1.4 3.1-3.1 3.1z"/>
					</g>
				</g>
				<g id="&lt;Group&gt;">
					<g id="&lt;Group&gt;">
						<path id="&lt;Path&gt;" class="s2" d="m944 596.8h-40.2c-1.7 0-3.1-1.4-3.1-3.1v-6.2c0-1.7 1.4-3.1 3.1-3.1h40.2c1.7 0 3.1 1.4 3.1 3.1v6.2c0 1.7-1.4 3.1-3.1 3.1z"/>
					</g>
				</g>
				<g id="&lt;Group&gt;">
					<g id="&lt;Group&gt;">
						<g id="&lt;Group&gt;">
							<path id="&lt;Compound Path&gt;" fill-rule="evenodd" class="s2" d="m836.5 598.6c-27.7 10-57.7 1-75.7-20.2-4.3-5.1-8-10.8-10.7-17.2q-0.9-2.1-1.7-4.3c-5.3-14.7-5.2-30-0.9-43.8 6.2-19.9 21.4-36.8 42.6-44.3 7-2.5 14.1-3.8 21.1-4.1 29.1-0.8 56.7 16.9 67 45.8 12.9 35.8-5.8 75.3-41.7 88.1zm25.5-82.3c-7.8-21.7-28.4-35-50.2-34.3-5.3 0.2-10.7 1.1-15.9 3-15.9 5.7-27.3 18.3-31.9 33.3-3.3 10.3-3.3 21.8 0.6 32.8q0.6 1.6 1.3 3.2c2.1 4.8 4.8 9.1 8 12.9 13.5 15.9 36 22.6 56.8 15.2 26.9-9.6 40.9-39.2 31.3-66.1z"/>
						</g>
					</g>
					<g id="&lt;Group&gt;">
						<g id="&lt;Group&gt;">
							<path id="&lt;Path&gt;" class="s11" d="m764 518.3l-16.5-5.2c6.2-19.9 21.4-36.8 42.6-44.3 7-2.5 14.1-3.8 21.1-4.1l0.6 17.3c-5.3 0.2-10.7 1.1-15.9 3-15.9 5.7-27.3 18.3-31.9 33.3z"/>
						</g>
					</g>
					<g id="&lt;Group&gt;">
						<g id="&lt;Group&gt;">
							<path id="&lt;Path&gt;" class="s12" d="m765.9 554.3l-15.8 6.9q-0.9-2.1-1.7-4.3c-5.3-14.7-5.2-30-0.9-43.8l16.5 5.2c-3.3 10.3-3.3 21.8 0.6 32.8q0.6 1.6 1.3 3.2z"/>
						</g>
					</g>
					<g id="&lt;Group&gt;">
						<g id="&lt;Group&gt;">
							<path id="&lt;Path&gt;" class="s13" d="m760.8 578.4c-4.3-5.1-8-10.8-10.7-17.2l15.8-6.9c2.1 4.8 4.8 9.1 8 12.9z"/>
						</g>
					</g>
				</g>
				<g id="&lt;Group&gt;">
					<g id="&lt;Group&gt;">
						<g id="&lt;Group&gt;">
						</g>
					</g>
					<g id="&lt;Group&gt;">
						<g id="&lt;Group&gt;">
						</g>
					</g>
					<g id="&lt;Group&gt;">
						<g id="&lt;Group&gt;">
						</g>
					</g>
					<g id="&lt;Group&gt;">
						<g id="&lt;Group&gt;">
						</g>
					</g>
					<g id="&lt;Group&gt;">
						<g id="&lt;Group&gt;">
						</g>
					</g>
					<g id="&lt;Group&gt;">
					</g>
					<g id="&lt;Group&gt;">
						<g id="&lt;Group&gt;">
						</g>
					</g>
					<g id="&lt;Group&gt;">
						<g id="&lt;Group&gt;">
						</g>
					</g>
					<g id="&lt;Group&gt;">
						<g id="&lt;Group&gt;">
						</g>
					</g>
					<g id="&lt;Group&gt;">
						<g id="&lt;Group&gt;">
						</g>
					</g>
					<g id="&lt;Group&gt;">
						<g id="&lt;Group&gt;">
						</g>
					</g>
					<g id="&lt;Group&gt;">
						<g id="&lt;Group&gt;">
						</g>
					</g>
					<g id="&lt;Group&gt;">
						<g id="&lt;Group&gt;">
						</g>
					</g>
					<g id="&lt;Group&gt;">
						<g id="&lt;Group&gt;">
						</g>
					</g>
					<g id="&lt;Group&gt;">
						<g id="&lt;Group&gt;">
						</g>
					</g>
					<g id="&lt;Group&gt;">
						<g id="&lt;Group&gt;">
						</g>
					</g>
					<g id="&lt;Group&gt;">
						<g id="&lt;Group&gt;">
						</g>
					</g>
					<g id="&lt;Group&gt;">
						<g id="&lt;Group&gt;">
						</g>
					</g>
				</g>
				<g id="&lt;Group&gt;">
					<g id="&lt;Group&gt;">
						<g id="&lt;Group&gt;">
						</g>
					</g>
				</g>
				<g id="&lt;Group&gt;">
					<g id="&lt;Group&gt;">
						<g id="&lt;Group&gt;">
						</g>
					</g>
				</g>
				<g id="&lt;Group&gt;">
					<g id="&lt;Group&gt;">
						<g id="&lt;Group&gt;">
						</g>
					</g>
				</g>
				<g id="&lt;Group&gt;">
					<g id="&lt;Group&gt;">
						<g id="&lt;Group&gt;">
						</g>
					</g>
				</g>
				<g id="&lt;Group&gt;">
					<g id="&lt;Group&gt;">
						<g id="&lt;Group&gt;">
						</g>
					</g>
				</g>
				<g id="&lt;Group&gt;">
					<g id="&lt;Group&gt;">
						<g id="&lt;Group&gt;">
						</g>
					</g>
				</g>
				<g id="&lt;Group&gt;">
					<g id="&lt;Group&gt;">
						<g id="&lt;Group&gt;">
						</g>
					</g>
				</g>
				<g id="&lt;Group&gt;">
					<g id="&lt;Group&gt;">
						<g id="&lt;Group&gt;">
						</g>
					</g>
				</g>
				<g id="&lt;Group&gt;">
				</g>
				<g id="&lt;Group&gt;">
				</g>
				<g id="&lt;Group&gt;">
					<g id="&lt;Group&gt;">
					</g>
				</g>
				<g id="&lt;Group&gt;">
					<g id="&lt;Group&gt;">
					</g>
				</g>
				<g id="&lt;Group&gt;">
					<g id="&lt;Group&gt;">
					</g>
				</g>
				<g id="&lt;Group&gt;">
				</g>
				<g id="&lt;Group&gt;">
				</g>
				<g id="&lt;Group&gt;">
				</g>
				<g id="&lt;Group&gt;">
				</g>
				<g id="&lt;Group&gt;">
				</g>
				<g id="&lt;Group&gt;">
					<g id="&lt;Group&gt;">
					</g>
				</g>
				<g id="&lt;Group&gt;">
				</g>
				<g id="&lt;Group&gt;">
				</g>
				<g id="&lt;Group&gt;">
				</g>
				<g id="&lt;Group&gt;">
					<g id="&lt;Group&gt;">
					</g>
					<g id="&lt;Group&gt;">
					</g>
				</g>
				<g id="&lt;Group&gt;">
				</g>
				<g id="&lt;Group&gt;">
				</g>
				<g id="&lt;Group&gt;">
				</g>
				<g id="&lt;Group&gt;">
				</g>
			</g>
		</g>
	</g>
</svg>